<?xml version="1.0" encoding="utf-8"?>
<svg xmlns="http://www.w3.org/2000/svg" width="84" height="84" class="segno"><path transform="scale(4)" class="qrline" stroke="#000" d="M2 2.5h7m1 0h1m1 0h1m1 0h1m1 0h1m1 0h1m-17 1h1m5 0h1m1 0h1m3 0h1m-13 1h1m1 0h3m1 0h1m1 0h2m1 0h1m1 0h3m-16 1h1m1 0h3m1 0h1m2 0h3m4 0h1m-17 1h1m1 0h3m1 0h1m3 0h1m2 0h4m-17 1h1m5 0h1m3 0h5m1 0h1m-17 1h7m1 0h2m3 0h1m1 0h2m-9 1h2m3 0h2m1 0h1m-17 1h1m1 0h2m1 0h1m2 0h1m3 0h3m-13 1h1m1 0h1m3 0h2m6 0h1m-17 1h1m1 0h1m1 0h2m4 0h1m3 0h2m-15 1h1m1 0h1m1 0h1m1 0h2m1 0h1m1 0h1m2 0h2m-17 1h5m1 0h1m2 0h2m3 0h3m-16 1h3m3 0h2m1 0h2m1 0h2m-15 1h1m1 0h2m1 0h1m4 0h4m2 0h1m-15 1h3m2 0h2m1 0h2m1 0h2m1 0h1m-17 1h2m2 0h1m2 0h2m1 0h7"/></svg>
