<?xml version="1.0" encoding="utf-8"?>
<svg xmlns="http://www.w3.org/2000/svg" width="84" height="84" class="segno"><path transform="scale(4)" class="qrline" stroke="#000" d="M2 2.5h7m1 0h1m1 0h1m1 0h1m1 0h1m1 0h1m-17 1h1m5 0h1m1 0h1m1 0h1m2 0h1m2 0h1m-17 1h1m1 0h3m1 0h1m1 0h2m1 0h1m2 0h3m-17 1h1m1 0h3m1 0h1m2 0h1m3 0h1m1 0h1m-16 1h1m1 0h3m1 0h1m4 0h3m2 0h1m-17 1h1m5 0h1m3 0h1m5 0h1m-17 1h7m1 0h3m1 0h3m1 0h1m-9 1h1m1 0h2m4 0h1m-17 1h1m1 0h2m1 0h1m2 0h1m2 0h1m1 0h2m1 0h1m-16 1h5m2 0h1m7 0h1m-17 1h1m1 0h1m1 0h1m2 0h1m5 0h4m-16 1h1m1 0h1m1 0h3m1 0h1m2 0h1m2 0h1m-16 1h2m1 0h2m2 0h4m2 0h2m1 0h1m-16 1h1m1 0h1m3 0h2m2 0h1m1 0h2m-15 1h2m1 0h3m1 0h2m2 0h3m2 0h1m-15 1h2m1 0h2m1 0h1m2 0h1m1 0h2m-15 1h4m1 0h3m3 0h4m1 0h1"/></svg>
