<svg width="269" height="66" viewBox="0 0 269 66" fill="none" xmlns="http://www.w3.org/2000/svg">
<g clip-path="url(#clip0_1101_1718)">
<path d="M0.416748 0.142212V65.8579H55.5338V0.142212H0.416748ZM49.1741 59.4981H6.77654V6.502H49.1741V59.4981Z" fill="#003595"/>
<path d="M42.814 12.8619H13.136V53.1385H42.814V12.8619Z" fill="#76BC21"/>
<path d="M71.9953 24.7437C73.0415 25.7394 74.2806 26.5107 75.7125 27.0575C77.1444 27.6075 78.7059 27.8793 80.3907 27.8793C82.0755 27.8793 83.5959 27.6075 85.0088 27.0575C86.4217 26.5107 87.6513 25.7426 88.6976 24.7563C89.7439 23.7733 90.5594 22.6038 91.1473 21.254C91.7384 19.9012 92.0324 18.4345 92.0324 16.8509C92.0324 15.2672 91.7384 13.7784 91.1473 12.4477C90.5594 11.1169 89.7407 9.95372 88.6976 8.95803C87.6513 7.96234 86.4217 7.19107 85.0088 6.64423C83.5959 6.09423 82.047 5.82239 80.3622 5.82239C78.6775 5.82239 77.1539 6.09423 75.7315 6.64423C74.3091 7.19107 73.07 7.96234 72.0142 8.95803C70.9585 9.95372 70.1398 11.1233 69.5613 12.4635C68.9829 13.8037 68.6953 15.2672 68.6953 16.8509C68.6953 18.4345 68.9829 19.898 69.5613 21.2382C70.1398 22.5785 70.9522 23.748 72.0016 24.7437H71.9953ZM74.1889 14.0787C74.524 13.2474 74.995 12.5236 75.605 11.9167C76.2151 11.3066 76.92 10.8388 77.7229 10.5132C78.5257 10.1876 79.4045 10.0264 80.3591 10.0264C81.3137 10.0264 82.1987 10.1908 83.0111 10.5132C83.8234 10.8388 84.5283 11.3066 85.1289 11.9167C85.7263 12.5236 86.1941 13.2474 86.5292 14.0787C86.8643 14.9132 87.0318 15.8362 87.0318 16.8509C87.0318 17.8655 86.8643 18.7917 86.5292 19.6262C86.1941 20.4575 85.7232 21.1813 85.1131 21.7882C84.5062 22.3983 83.7982 22.8661 82.9953 23.1917C82.1924 23.5173 81.3137 23.6785 80.3591 23.6785C79.4045 23.6785 78.5226 23.5173 77.7102 23.1917C76.8947 22.8661 76.1898 22.3983 75.5924 21.7882C74.9918 21.1813 74.5272 20.4512 74.1921 19.6104C73.857 18.7664 73.6895 17.8497 73.6895 16.8509C73.6895 15.852 73.857 14.9132 74.1921 14.0787H74.1889Z" fill="#003595"/>
<path d="M114.425 6.18591H109.215L103.621 14.8089H100.074V6.18591H95.1683V27.5159H100.074V18.9245H103.475L109.029 27.5159H114.636L107.455 16.4874L114.425 6.18591Z" fill="#003595"/>
<path d="M134.762 8.95803C133.716 7.96234 132.486 7.19107 131.073 6.64423C129.66 6.09423 128.111 5.82239 126.426 5.82239C124.742 5.82239 123.218 6.09423 121.796 6.64423C120.373 7.19107 119.134 7.96234 118.078 8.95803C117.023 9.95372 116.204 11.1233 115.626 12.4635C115.047 13.8037 114.759 15.2672 114.759 16.8509C114.759 18.4345 115.047 19.898 115.626 21.2382C116.204 22.5785 117.016 23.748 118.066 24.7437C119.112 25.7394 120.351 26.5107 121.783 27.0575C123.215 27.6075 124.776 27.8793 126.461 27.8793C128.146 27.8793 129.666 27.6075 131.079 27.0575C132.492 26.5107 133.722 25.7426 134.768 24.7563C135.814 23.7733 136.63 22.6038 137.218 21.254C137.809 19.9012 138.103 18.4345 138.103 16.8509C138.103 15.2672 137.809 13.7784 137.218 12.4477C136.63 11.1169 135.811 9.95372 134.768 8.95803H134.762ZM132.597 19.623C132.262 20.4543 131.791 21.1782 131.18 21.7851C130.574 22.3951 129.866 22.8629 129.063 23.1885C128.26 23.5141 127.381 23.6753 126.426 23.6753C125.472 23.6753 124.59 23.5141 123.778 23.1885C122.962 22.8629 122.257 22.3951 121.66 21.7851C121.059 21.1782 120.595 20.448 120.259 19.6072C119.924 18.7664 119.757 17.8466 119.757 16.8477C119.757 15.8488 119.924 14.9101 120.259 14.0756C120.595 13.2442 121.066 12.5204 121.676 11.9135C122.286 11.3034 122.991 10.8356 123.793 10.51C124.596 10.1845 125.475 10.0233 126.43 10.0233C127.384 10.0233 128.269 10.1876 129.082 10.51C129.894 10.8356 130.599 11.3034 131.199 11.9135C131.797 12.5204 132.265 13.2442 132.6 14.0756C132.935 14.9101 133.102 15.833 133.102 16.8477C133.102 17.8624 132.935 18.7885 132.6 19.623H132.597Z" fill="#003595"/>
<path d="M146.233 18.7696H155.924V27.5159H160.858V6.18591H155.924V14.594H146.233V6.18591H141.298V27.5159H146.233V18.7696Z" fill="#003595"/>
<path d="M185.144 27.5159V6.18591H180.206V14.594H170.518V6.18591H165.584V27.5159H170.518V18.7696H180.206V27.5159H185.144Z" fill="#003595"/>
<path d="M215.887 6.18591H210.981V27.5159H215.887V6.18591Z" fill="#003595"/>
<path d="M206.167 14.9164C204.767 13.769 202.775 13.1937 200.196 13.1937H194.772V6.18591H189.866V27.5159H199.494C202.238 27.5159 204.384 26.8868 205.939 25.6256C207.495 24.3676 208.269 22.5184 208.269 20.0782C208.269 17.7834 207.567 16.0638 206.167 14.9164ZM202.206 22.9135C201.476 23.5426 200.477 23.8587 199.219 23.8587H194.772V16.8477H199.219C200.499 16.8477 201.501 17.1069 202.222 17.6253C202.943 18.1437 203.303 18.9908 203.303 20.1699C203.303 21.3489 202.937 22.2814 202.206 22.9135Z" fill="#003595"/>
<path d="M235.421 27.5159H240.296V6.18591H235.662L225.487 20.0782V6.18591H220.581V27.5159H225.243L235.421 13.652V27.5159Z" fill="#003595"/>
<path d="M225.958 3.59716C226.903 4.40952 228.389 4.81728 230.421 4.81728C232.454 4.81728 233.914 4.40952 234.869 3.59716C235.823 2.7848 236.31 1.63738 236.332 0.154907H232.95C232.931 0.885081 232.706 1.43824 232.28 1.81439C231.853 2.19054 231.233 2.37704 230.421 2.37704C229.609 2.37704 228.964 2.19054 228.547 1.81439C228.129 1.43824 227.911 0.885081 227.889 0.154907H224.507C224.526 1.63738 225.01 2.7848 225.955 3.59716H225.958Z" fill="#003595"/>
<path d="M89.3774 37.9219H84.1682L78.5765 46.5449H75.0268V37.9219H70.121V59.2518H75.0268V50.6573H78.4279L83.9849 59.2518H89.5892L82.4076 48.2233L89.3774 37.9219Z" fill="#003595"/>
<path d="M109.718 40.6939C108.671 39.6982 107.442 38.9269 106.029 38.3801C104.616 37.8301 103.067 37.5582 101.382 37.5582C99.6974 37.5582 98.1738 37.8301 96.7514 38.3801C95.329 38.9269 94.0899 39.6982 93.0342 40.6939C91.9784 41.6896 91.1598 42.8591 90.5813 44.1993C90.0029 45.5396 89.7152 47.0031 89.7152 48.5867C89.7152 50.1703 90.0029 51.6338 90.5813 52.9741C91.1598 54.3143 91.9721 55.4838 93.0215 56.4795C94.0678 57.4752 95.3069 58.2465 96.7388 58.7933C98.1707 59.3433 99.7322 59.6152 101.417 59.6152C103.102 59.6152 104.622 59.3433 106.035 58.7933C107.448 58.2465 108.678 57.4784 109.724 56.4922C110.77 55.5091 111.586 54.3396 112.174 52.9899C112.765 51.637 113.059 50.1703 113.059 48.5867C113.059 47.0031 112.765 45.5143 112.174 44.1835C111.586 42.8528 110.767 41.6896 109.724 40.6939H109.718ZM107.552 51.3588C107.217 52.1902 106.746 52.914 106.136 53.5209C105.529 54.131 104.821 54.5988 104.018 54.9244C103.216 55.2499 102.337 55.4111 101.382 55.4111C100.428 55.4111 99.5457 55.2499 98.7333 54.9244C97.9178 54.5988 97.2129 54.131 96.6155 53.5209C96.0149 52.914 95.5503 52.1838 95.2152 51.343C94.8802 50.4991 94.7126 49.5824 94.7126 48.5835C94.7126 47.5847 94.8802 46.6459 95.2152 45.8114C95.5503 44.9801 96.0213 44.2562 96.6313 43.6493C97.2414 43.0393 97.9463 42.5715 98.7491 42.2459C99.552 41.9203 100.431 41.7591 101.385 41.7591C102.34 41.7591 103.225 41.9235 104.037 42.2459C104.85 42.5715 105.555 43.0393 106.155 43.6493C106.753 44.2562 107.22 44.9801 107.555 45.8114C107.891 46.6459 108.058 47.5689 108.058 48.5835C108.058 49.5982 107.891 50.5244 107.555 51.3588H107.552Z" fill="#003595"/>
<path d="M130.877 46.3299H121.189V37.9219H116.251V59.2518H121.189V50.5055H130.877V59.2518H135.814V37.9219H130.877V46.3299Z" fill="#003595"/>
<path d="M138.343 41.9457H145.139V59.2518H150.013V41.9457H156.838V37.9219H138.343V41.9457Z" fill="#003595"/>
<path d="M164.241 51.8142V37.9219H159.335V59.2518H163.997L174.175 45.388V59.2518H179.05V37.9219H174.419L164.241 51.8142Z" fill="#003595"/>
<path d="M198.366 46.3299H188.678V37.9219H183.744V59.2518H188.678V50.5055H198.366V59.2518H203.304V37.9219H198.366V46.3299Z" fill="#003595"/>
<path d="M212.932 50.3538H222.835V46.5133H212.932V41.8825H224.147V37.9219H208.029V59.2518H224.542V55.2912H212.932V50.3538Z" fill="#003595"/>
<path d="M242.55 46.3299H232.858V37.9219H227.924V59.2518H232.858V50.5055H242.55V59.2518H247.484V37.9219H242.55V46.3299Z" fill="#003595"/>
<path d="M268.51 37.9219H250.016V41.9457H256.808V59.2518H261.683V41.9457H268.51V37.9219Z" fill="#003595"/>
</g>
<defs>
<clipPath id="clip0_1101_1718">
<rect width="268.094" height="65.7157" fill="white" transform="translate(0.416748 0.142212)"/>
</clipPath>
</defs>
</svg>
